<?xml version="1.0" encoding="utf-8"?>
<!-- Generator: Adobe Illustrator 18.0.0, SVG Export Plug-In . SVG Version: 6.00 Build 0)  -->
<!DOCTYPE svg PUBLIC "-//W3C//DTD SVG 1.1//EN" "http://www.w3.org/Graphics/SVG/1.1/DTD/svg11.dtd">
<svg version="1.1" id="Layer_1" xmlns="http://www.w3.org/2000/svg" xmlns:xlink="http://www.w3.org/1999/xlink" x="0px" y="0px"
	 viewBox="0 0 192 192" style="enable-background:new 0 0 192 192;" xml:space="preserve">
<g id="mail_2_">
	<g>
		<path style="fill:#BDBDBD;stroke:#BDBDBD;stroke-width:2;stroke-miterlimit:10;" d="M138.3,62.7H53.7c-3.3,0-6,2.7-6,6v54.4
			c0,3.3,2.7,6,6,6h84.6c3.3,0,6-2.7,6-6V68.8C144.4,65.5,141.7,62.7,138.3,62.7z M132.9,68.8L96,105.1L59.4,68.8H132.9z
			 M53.7,123.2V71.8l29,29l-22.8,22.4H53.7z M68.7,123.2l18.4-17.9l4.8,4.8c2.4,2.4,6.2,2.4,8.6,0l4.6-4.6l18.4,17.8H68.7z
			 M138.3,123.2h-5.9l-22.8-22.4l28.6-28.6V123.2z"/>
	</g>
</g>
<path style="fill:#BDBDBD;" d="M190.8,96c0-52.3-42.4-94.8-94.8-94.8C43.7,1.2,1.2,43.7,1.2,96c0,52.3,42.4,94.8,94.8,94.8
	C148.3,190.8,190.8,148.3,190.8,96z M9.8,96C9.8,48.4,48.4,9.8,96,9.8s86.2,38.6,86.2,86.2s-38.6,86.2-86.2,86.2S9.8,143.6,9.8,96z"
	/>
<g>
</g>
<g>
</g>
<g>
</g>
<g>
</g>
<g>
</g>
<g>
</g>
</svg>
