<?xml version="1.0" encoding="utf-8"?>
<!-- Generator: Adobe Illustrator 18.0.0, SVG Export Plug-In . SVG Version: 6.00 Build 0)  -->
<!DOCTYPE svg PUBLIC "-//W3C//DTD SVG 1.1//EN" "http://www.w3.org/Graphics/SVG/1.1/DTD/svg11.dtd">
<svg version="1.1" id="Layer_1" xmlns="http://www.w3.org/2000/svg" xmlns:xlink="http://www.w3.org/1999/xlink" x="0px" y="0px"
	 viewBox="0 0 192 192" style="enable-background:new 0 0 192 192;" xml:space="preserve">
<path style="fill:#BDBDBD;" d="M79.5,68.6l-3.6-13.2c-1-3.6-4.6-7.4-8.1-8.6l-1.5-0.5c-3.5-1.2-8.5,0-11.1,2.6L48,56.1
	c-1.3,1.3-2.1,4.9-2.1,4.9c-0.2,22.6,8.6,44.4,24.6,60.5c16,16,37.7,24.8,60.3,24.6c0.1,0,3.8-0.8,5.1-2.1l7.1-7.1
	c2.6-2.6,3.8-7.6,2.6-11.1l-0.5-1.5c-1.2-3.5-5-7.2-8.6-8.1l-13.2-3.6c-3.6-1-8.7,0.3-11.3,3l-4.8,4.8C90,115.6,76.4,102,71.8,84.7
	l4.8-4.8C79.1,77.3,80.5,72.2,79.5,68.6z"/>
<path style="fill:#BDBDBD;" d="M190.8,96c0-52.3-42.4-94.8-94.8-94.8C43.7,1.2,1.2,43.7,1.2,96c0,52.3,42.4,94.8,94.8,94.8
	C148.3,190.8,190.8,148.3,190.8,96z M9.8,96C9.8,48.4,48.4,9.8,96,9.8s86.2,38.6,86.2,86.2s-38.6,86.2-86.2,86.2S9.8,143.6,9.8,96z"
	/>
<g>
</g>
<g>
</g>
<g>
</g>
<g>
</g>
<g>
</g>
<g>
</g>
</svg>
