<?xml version="1.0" encoding="utf-8"?>
<!-- Generator: Adobe Illustrator 18.0.0, SVG Export Plug-In . SVG Version: 6.00 Build 0)  -->
<!DOCTYPE svg PUBLIC "-//W3C//DTD SVG 1.1//EN" "http://www.w3.org/Graphics/SVG/1.1/DTD/svg11.dtd">
<svg version="1.1" id="Layer_1" xmlns="http://www.w3.org/2000/svg" xmlns:xlink="http://www.w3.org/1999/xlink" x="0px" y="0px"
	 viewBox="0 0 192 192" style="enable-background:new 0 0 192 192;" xml:space="preserve">
<g>
	<rect x="23.4" y="66.7" style="fill:none;" width="145.2" height="58.5"/>
	<path style="fill:#BDBDBD;" d="M60.6,101.1h0.2l4.1-20.4h8l-8.1,31.7h-7.1l-5.9-18.9h-0.2l-5.9,18.9h-7.1l-8.1-31.7h8l4.2,20.3H43
		l5.9-20.3h5.7L60.6,101.1z"/>
	<path style="fill:#BDBDBD;" d="M104.8,101.1h0.2l4.1-20.4h8l-8.1,31.7h-7.1L96,93.6h-0.2L90,112.5h-7.1l-8.1-31.7h8l4.2,20.3h0.2
		l5.9-20.3h5.7L104.8,101.1z"/>
	<path style="fill:#BDBDBD;" d="M148.9,101.1h0.2l4.1-20.4h8l-8.1,31.7h-7.1l-5.9-18.9H140l-5.9,18.9H127l-8.1-31.7h8l4.2,20.3h0.2
		l5.9-20.3h5.7L148.9,101.1z"/>
	<path style="fill:#BDBDBD;" d="M29.8,118.3v-2.9h132.5v2.9H29.8z"/>
</g>
<path style="fill:#BDBDBD;" d="M190.8,96c0-52.3-42.4-94.8-94.8-94.8C43.7,1.2,1.2,43.7,1.2,96c0,52.3,42.4,94.8,94.8,94.8
	C148.3,190.8,190.8,148.3,190.8,96z M9.8,96C9.8,48.4,48.4,9.8,96,9.8s86.2,38.6,86.2,86.2s-38.6,86.2-86.2,86.2S9.8,143.6,9.8,96z"
	/>
<g>
</g>
<g>
</g>
<g>
</g>
<g>
</g>
<g>
</g>
<g>
</g>
</svg>
