<?xml version="1.0" encoding="utf-8"?>
<!-- Generator: Adobe Illustrator 18.0.0, SVG Export Plug-In . SVG Version: 6.00 Build 0)  -->
<!DOCTYPE svg PUBLIC "-//W3C//DTD SVG 1.1//EN" "http://www.w3.org/Graphics/SVG/1.1/DTD/svg11.dtd">
<svg version="1.1" id="Layer_1" xmlns="http://www.w3.org/2000/svg" xmlns:xlink="http://www.w3.org/1999/xlink" x="0px" y="0px"
	 viewBox="0 0 192 192" style="enable-background:new 0 0 192 192;" xml:space="preserve">
<path style="fill:#BDBDBD;" d="M190.8,96c0-52.3-42.4-94.8-94.8-94.8C43.7,1.2,1.2,43.7,1.2,96c0,52.3,42.4,94.8,94.8,94.8
	C148.3,190.8,190.8,148.3,190.8,96z M9.8,96C9.8,48.4,48.4,9.8,96,9.8s86.2,38.6,86.2,86.2s-38.6,86.2-86.2,86.2S9.8,143.6,9.8,96z"
	/>
<path style="fill:#BDBDBD;" d="M99.6,150.6V95.9h18.1l2.9-18.1H99.6v-9.1c0-4.7,1.6-9.2,8.3-9.2h13.6V41.4h-19.3
	C86,41.4,81.6,52,81.6,66.8v11H70.5v18.1h11.1v54.7H99.6L99.6,150.6z"/>
<g>
</g>
<g>
</g>
<g>
</g>
<g>
</g>
<g>
</g>
<g>
</g>
</svg>
