<?xml version="1.0" encoding="utf-8"?>
<!-- Generator: Adobe Illustrator 18.0.0, SVG Export Plug-In . SVG Version: 6.00 Build 0)  -->
<!DOCTYPE svg PUBLIC "-//W3C//DTD SVG 1.1//EN" "http://www.w3.org/Graphics/SVG/1.1/DTD/svg11.dtd">
<svg version="1.1" id="Layer_1" xmlns="http://www.w3.org/2000/svg" xmlns:xlink="http://www.w3.org/1999/xlink" x="0px" y="0px"
	 viewBox="0 0 512 512" style="enable-background:new 0 0 512 512;" xml:space="preserve">
<circle style="fill:#66BB6A;" cx="256" cy="256" r="256"/>
<g id="User">
	<g>
		<path style="fill:#B2FF59;" d="M257,323.5c55.8,0,101.2-55.5,101.2-123.7S312.8,76,257,76c-27.5,0-53.3,13.2-72.4,37.2
			c-18.6,23.2-28.8,54-28.8,86.6C155.8,268,201.2,323.5,257,323.5z M257,98.5c43.4,0,78.7,45.4,78.7,101.2
			c0,55.8-35.3,101.2-78.7,101.2s-78.7-45.4-78.8-101.2C178.2,143.9,213.6,98.5,257,98.5z M335.7,301c-6.2,0-11.2,5-11.2,11.2
			s5,11.2,11.2,11.2c43.4,0,78.7,35.3,78.7,78.7c0,6.2-5.1,11.2-11.2,11.2H110.8c-6.2,0-11.2-5.1-11.2-11.2
			c0-43.4,35.3-78.7,78.7-78.7c6.2,0,11.2-5,11.2-11.2s-5-11.2-11.2-11.2C122.4,301,77,346.4,77,402.2c0,18.6,15.1,33.7,33.7,33.7
			h292.5c18.6,0,33.7-15.1,33.7-33.7C437,346.4,391.6,301,335.7,301z"/>
	</g>
</g>
<g>
</g>
<g>
</g>
<g>
</g>
<g>
</g>
<g>
</g>
<g>
</g>
<g>
</g>
<g>
</g>
<g>
</g>
<g>
</g>
<g>
</g>
</svg>
