<?xml version="1.0" encoding="utf-8"?>
<!-- Generator: Adobe Illustrator 19.0.0, SVG Export Plug-In . SVG Version: 6.00 Build 0)  -->
<svg version="1.1" id="Layer_1" xmlns="http://www.w3.org/2000/svg" xmlns:xlink="http://www.w3.org/1999/xlink" x="0px" y="0px"
	 viewBox="-634 337 96 96" enable-background="new -634 337 96 96" xml:space="preserve">
<g id="XMLID_30000_" opacity="0.54">
	<g id="shopping-cart_9_">
		<path id="XMLID_30007_" d="M-604.6,413.1c-5.1,0-9.3,4.2-9.3,9.3s4.2,9.3,9.3,9.3c5.1,0,9.3-4.2,9.3-9.3S-599.5,413.1-604.6,413.1
			z M-632.5,338.6v9.3h9.3l16.8,35.4l-6.6,11.2c-0.5,1.4-0.9,3.3-0.9,4.7c0,5.1,4.2,9.3,9.3,9.3h55.9v-9.3h-54
			c-0.5,0-0.9-0.5-0.9-0.9v-0.5l4.2-7.9h34.4c3.7,0,6.5-1.9,7.9-4.7l16.8-30.3c0.9-0.9,0.9-1.4,0.9-2.3c0-2.8-1.9-4.7-4.7-4.7H-613
			l-4.2-9.3C-617.2,338.6-632.5,338.6-632.5,338.6z M-558,413.1c-5.1,0-9.3,4.2-9.3,9.3s4.2,9.3,9.3,9.3s9.3-4.2,9.3-9.3
			S-552.9,413.1-558,413.1z"/>
	</g>
</g>
</svg>
