<?xml version="1.0" encoding="utf-8"?>
<!-- Generator: Adobe Illustrator 19.0.0, SVG Export Plug-In . SVG Version: 6.00 Build 0)  -->
<svg version="1.1" id="Layer_1" xmlns="http://www.w3.org/2000/svg" xmlns:xlink="http://www.w3.org/1999/xlink" x="0px" y="0px"
	 viewBox="-28 74 96 96" enable-background="new -28 74 96 96" xml:space="preserve">
<path opacity="0.54" d="M19.7,76.1c-25.4,0-45.9,20.6-45.9,45.9s20.6,45.9,45.9,45.9s45.9-20.6,45.9-45.9S45.1,76.1,19.7,76.1z
	 M14.9,104.4c0.3-2.1,1.9-3.6,3.9-3.9c0.6-0.1,0.8-0.1,1.4,0c2.1,0.3,3.6,1.9,3.9,3.9c0.1,0.6,0.1,0.8,0,1.4c-0.3,2-1.8,3.5-3.8,3.9
	c-0.7,0.1-1,0.1-1.7,0h0c-1.9-0.3-3.4-1.9-3.7-3.9C14.8,105.2,14.8,105.1,14.9,104.4z M24.2,138h-9.4v-11.7v-11.7h9.4V138z"/>
</svg>
