<?xml version="1.0" encoding="utf-8"?>
<!-- Generator: Adobe Illustrator 19.0.0, SVG Export Plug-In . SVG Version: 6.00 Build 0)  -->
<svg version="1.1" id="Layer_1" xmlns="http://www.w3.org/2000/svg" xmlns:xlink="http://www.w3.org/1999/xlink" x="0px" y="0px"
	 viewBox="-515 925 72 72" enable-background="new -515 925 72 72" xml:space="preserve">
<circle opacity="0.54" cx="-479" cy="961.8" r="34"/>
<path id="XMLID_1045_" fill="#FFFFFF" enable-background="new    " d="M-485,973.6c9.9,9.9,17.5,12.4,26.5,3.4
	c1.4-1.4,2.7-3.3,0.9-5.2l-7.3-5.6c-2.3-1.3-3.2-0.4-4.3,0.9c-4,4.5-8.2,3-11.1,0l-4.3-4.2c-3-2.9-4.5-7.1,0-11.1
	c1.2-1.1,2.1-2,0.9-4.3l-5.6-7.3c-1.9-1.9-3.7-0.5-5.2,0.9c-8.9,9-6.4,16.6,3.4,26.5L-485,973.6z"/>
</svg>
