<?xml version="1.0" encoding="utf-8"?>
<!-- Generator: Adobe Illustrator 19.0.0, SVG Export Plug-In . SVG Version: 6.00 Build 0)  -->
<svg version="1.1" id="Layer_1" xmlns="http://www.w3.org/2000/svg" xmlns:xlink="http://www.w3.org/1999/xlink" x="0px" y="0px"
	 viewBox="-28 74 96 96" enable-background="new -28 74 96 96" xml:space="preserve">
<path opacity="0.54" d="M20,76.8C-5,76.8-25.3,97-25.3,122S-5,167.3,20,167.3c25,0,45.3-20.3,45.3-45.3S45,76.8,20,76.8z
	 M23.9,149.3h-7.7v-6.7h7.7V149.3z M23.9,127.6v8.5h-7.7v-15.7H20c4.3,0,7.7-3.5,7.7-7.7s-3.5-7.7-7.7-7.7s-7.7,3.5-7.7,7.7H4.6
	c0-8.5,6.9-15.4,15.4-15.4v0c7.2-0.1,13.4,4.8,15.1,11.7C37.2,117.2,32.1,125.6,23.9,127.6z"/>
</svg>
