<?xml version="1.0" encoding="utf-8"?>
<!-- Generator: Adobe Illustrator 19.0.0, SVG Export Plug-In . SVG Version: 6.00 Build 0)  -->
<svg version="1.1" id="Layer_1" xmlns="http://www.w3.org/2000/svg" xmlns:xlink="http://www.w3.org/1999/xlink" x="0px" y="0px"
	 viewBox="-28 74 96 96" enable-background="new -28 74 96 96" xml:space="preserve">
<g opacity="0.54">
	<circle cx="49.1" cy="150.7" r="5.7"/>
	<circle cx="-9.3" cy="150.7" r="5.6"/>
	<path d="M62.7,113.4h-3.9l-2-8.9v-0.1c-1.3-4.8-5.7-8.2-10.7-8.2h-7.2v-4.7c0-2.1-1.7-3.7-3.7-3.7h-57.8c-2.1,0-3.7,1.7-3.7,3.7
		v47.7c0,2.1,1.7,3.7,3.7,3.7h8.3c3.1-2,7-2,10.1,0H44c3.1-2,7-2,10.1,0h8.5c2.1,0,3.7-1.7,3.7-3.7v-22
		C66.4,115,64.7,113.4,62.7,113.4z M26.3,105.2L7.1,124.4c-1.1,1.1-3,1.1-4.1,0l-11.3-11.3c-1.1-1.2-1-3,0.2-4.1c1.1-1,2.8-1,3.9,0
		l9.2,9.2l17.2-17.2c1.2-1.1,3-1,4.1,0.2C27.3,102.4,27.3,104.1,26.3,105.2z M59,135.3H38.9v-31.7H46c1.6,0,3,1.1,3.5,2.6l2.6,11.7
		c0.4,1.7,1.9,2.9,3.6,2.9h3.1L59,135.3z"/>
</g>
</svg>
