<?xml version="1.0" encoding="utf-8"?>
<!-- Generator: Adobe Illustrator 19.0.0, SVG Export Plug-In . SVG Version: 6.00 Build 0)  -->
<svg version="1.1" id="Layer_1" xmlns="http://www.w3.org/2000/svg" xmlns:xlink="http://www.w3.org/1999/xlink" x="0px" y="0px"
	 viewBox="-28 74 96 96" enable-background="new -28 74 96 96" xml:space="preserve">
<path opacity="0.54" d="M-8.3,165.9h56.5c11,0,11.2,0,13.3-12.5l5.6-32.8c0.7-4,0.3-4.6-3.8-4.6h-86.9c-4.1,0-4.5,0.6-3.8,4.6
	l5.6,32.8C-19.5,165.9-19.2,165.9-8.3,165.9z M12.8,130.3c-2.1,0-3.6-1.5-3.6-3.6s1.6-3.6,3.6-3.6h14.3c2.1,0,3.7,1.5,3.6,3.6
	c-0.1,2.1-1.6,3.6-3.6,3.6H12.8z M-6.6,90.7c0.1-4.7-5.4-8.8-10.8-8.3C-17.2,87.5-12.3,90.9-6.6,90.7z M-22.7,108.9h85.2
	c0.8-8.8-5.8-14.9-14.7-14.9c-5.9,0-10.8,2.7-13.3,7.1c-1.1-6.8-7-11.3-14.6-11.3S6.3,94.2,5.2,101c-2.4-4.3-7.3-7-13.1-7
	C-16.8,94-23.5,100.1-22.7,108.9z M21.2,86.4c0.1-4.7-5.4-8.8-10.8-8.3C10.6,83.2,15.5,86.6,21.2,86.4z M49.1,90.7
	c0.1-4.7-5.4-8.8-10.8-8.3C38.5,87.5,43.3,90.9,49.1,90.7z"/>
</svg>
